<svg width="125" height="78" viewBox="0 0 125 78" fill="none" xmlns="http://www.w3.org/2000/svg">
<path d="M25.8191 0.534228C24.454 -0.163753 23.0951 -0.163753 21.7301 0.534228C20.365 1.23221 19.6855 2.39963 19.6855 4.01795C19.6855 7.55727 19.7041 12.789 19.7411 19.7194C19.7782 26.6498 19.7967 31.8816 19.7967 35.4209H19.6855L8.29547 35.6433C8.29547 32.104 8.27694 26.8351 8.23988 19.8306C8.20282 12.8261 8.18429 7.55727 8.18429 4.01795C8.18429 2.39963 7.50484 1.23221 6.13976 0.534228C4.7685 -0.163753 3.4096 -0.163753 2.04453 0.534228C0.67945 1.23221 0 2.39963 0 4.01795C0.0741218 34.76 0.111183 57.8366 0.111183 73.2416C0.111183 74.9402 0.81534 76.1138 2.2113 76.7809C3.60726 77.4418 4.99087 77.4418 6.35595 76.7809C7.72102 76.1138 8.40047 74.9402 8.40047 73.2416C8.40047 69.9987 8.38194 65.1129 8.34488 58.5901C8.30782 52.0674 8.28929 47.1816 8.28929 43.9387C9.54319 43.9387 11.4951 44.0932 14.0399 44.019C16.5848 43.9449 18.4316 43.9387 19.6855 43.9387H19.7967C19.7967 47.1816 19.8029 51.8698 19.8399 58.4296C19.877 64.9893 19.8955 69.9308 19.8955 73.2477C19.8955 74.9464 20.575 76.12 21.9401 76.7871C23.3051 77.448 24.664 77.448 26.0291 76.7871C27.3942 76.12 28.0736 74.9464 28.0736 73.2477C27.9995 42.5057 27.9625 19.4353 27.9625 4.02413C27.8883 2.4058 27.1718 1.23838 25.8067 0.540404L25.8191 0.534228Z" fill="#E1FFFE"/>
<path d="M47.4937 23.6845C47.1045 23.3386 45.7209 22.4862 43.349 21.1149C40.9771 19.7437 39.4206 18.4465 38.6917 17.2235C37.7158 15.704 37.3081 13.8695 37.481 11.72C37.654 9.56427 38.4261 7.878 39.7912 6.65499C40.378 6.1176 41.0142 5.75935 41.6998 5.59257C42.3854 5.41962 43.0958 5.55551 43.8246 5.99407C44.5103 6.43262 44.8129 7.32826 44.745 8.67481C44.6709 10.0214 44.1705 10.7193 43.2378 10.7687C42.7004 10.8182 42.2372 10.9602 41.8419 11.2073C40.7671 11.9423 40.3718 12.9677 40.6683 14.2895C40.9586 15.6608 41.8172 16.3217 43.2378 16.2723C44.8994 16.1241 46.3077 15.5496 47.4566 14.549C48.6055 13.5483 49.3529 12.3377 49.6926 10.917C50.0385 9.49632 50.125 8.05712 49.952 6.58704C49.7791 5.11696 49.1799 3.8013 48.1546 2.62152C47.1292 1.44793 45.8321 0.663472 44.2632 0.274333C42.2063 -0.213636 40.31 -0.0283313 38.5743 0.82407C36.8386 1.68265 35.4797 2.92419 34.5038 4.56722C33.5279 6.20408 32.8422 8.02624 32.4469 10.0337C32.0578 12.0412 32.0331 13.9251 32.3728 15.6855C33.1078 19.4534 35.2821 22.4615 38.9017 24.7098C39.192 24.9075 39.6244 25.1731 40.1865 25.519C40.7486 25.8587 41.1748 26.1305 41.4713 26.3282C41.7616 26.5258 42.1445 26.7791 42.6078 27.1003C43.0711 27.4153 43.454 27.6994 43.7443 27.9465C44.0346 28.1936 44.3682 28.4839 44.7326 28.8298C45.0971 29.1695 45.4059 29.503 45.6468 29.8181C45.8939 30.1331 46.1348 30.516 46.3818 30.9546C46.6289 31.3931 46.8327 31.8564 47.0057 32.3506C47.1786 32.8385 47.3145 33.3512 47.4072 33.8948C47.8457 36.0443 47.716 38.2371 47.0057 40.4607C46.2954 42.6844 45.06 44.2903 43.2996 45.2663C42.0272 45.9025 40.9895 45.8901 40.1803 45.2292C39.6429 44.7907 39.26 44.1853 39.0067 43.4441C38.9882 39.2501 38.9635 35.5625 38.9449 32.4123C38.9449 31.4179 38.3767 30.7075 37.2401 30.2813C36.1036 29.8551 34.9671 29.8551 33.8305 30.2813C32.694 30.7075 32.1257 31.424 32.1257 32.4123C32.1875 51.2393 32.2184 65.3718 32.2184 74.8038C32.2184 75.8415 32.8052 76.5642 33.9726 76.9719C35.14 77.3796 36.2889 77.3796 37.4254 76.9719C38.562 76.5642 39.1302 75.8415 39.1302 74.8038C39.0994 65.761 39.0685 57.8114 39.0438 50.9366C40.2483 51.3628 41.6195 51.3999 43.1575 51.0601C45.6036 50.5228 47.6481 49.2627 49.2849 47.2799C50.928 45.2972 52.0274 43.0612 52.5895 40.5657C53.1516 38.0703 53.2381 35.649 52.849 33.3018C52.1633 29.1942 50.3782 25.9884 47.4937 23.6907V23.6845Z" fill="#E1FFFE"/>
<path d="M83.4548 4.08585C81.1941 2.34398 78.5813 1.17039 75.6165 0.577412C72.6578 -0.0155623 69.6867 -0.145276 66.7095 0.19445C65.715 0.324163 64.7576 0.48476 63.8249 0.670065C62.8922 0.861546 61.8174 1.20127 60.5944 1.68924C59.3714 2.17721 58.3152 2.7393 57.4319 3.38169C56.5486 4.0179 55.7889 4.89501 55.1527 6.00066C54.5164 7.10631 54.2014 8.36021 54.2014 9.76852C54.1088 10.1515 54.1273 10.5777 54.2508 11.0409C54.3126 11.4671 54.4361 11.8316 54.6215 12.1281C55.0538 13.3202 55.69 14.3703 56.5301 15.2844C57.3701 16.1986 58.3337 16.9336 59.4394 17.4834C60.5388 18.0393 61.5333 18.4717 62.4166 18.7929C63.2999 19.114 64.3314 19.3982 65.5112 19.6576C71.2494 21.0597 76.6418 20.2753 81.6945 17.2981C84.6408 15.5994 86.2962 13.5117 86.673 11.0409C86.8892 9.63881 86.673 8.34167 86.0244 7.14955C85.3758 5.95742 84.5234 4.93825 83.4672 4.08585H83.4548ZM80.9656 12.7025C80.175 13.2152 79.5326 13.5673 79.0384 13.7587C78.5443 13.9502 77.8154 14.2158 76.8518 14.5556C74.2452 15.408 71.6139 15.723 68.9455 15.513C67.0245 15.3462 64.8503 14.7717 62.4351 13.7896C62.3734 13.7464 62.2622 13.6846 62.1078 13.5981C61.521 13.3881 61.0639 13.1967 60.7365 13.0237C60.4091 12.8569 60.0015 12.6222 59.5011 12.3195C59.007 12.0231 58.5931 11.6586 58.272 11.2324C57.9446 10.8062 57.7222 10.3183 57.5987 9.76234C57.4443 8.36021 59.2108 7.03837 62.8984 5.803C65.1591 5.03708 67.704 4.69735 70.5268 4.78383C73.2569 4.8703 75.8882 5.42004 78.4331 6.44539C78.6493 6.53187 78.8346 6.60599 78.989 6.66776C79.1434 6.72952 79.409 6.84688 79.7796 7.01984C80.1503 7.19279 80.4591 7.35338 80.7123 7.50163C80.9594 7.64987 81.2559 7.829 81.5956 8.04519C81.9354 8.2552 82.201 8.47139 82.3863 8.6814C82.5716 8.89759 82.7507 9.11995 82.9236 9.35467C83.0966 9.58939 83.1645 9.84264 83.1337 10.1206C83.1028 10.3986 83.0101 10.6642 82.8557 10.9174C82.3924 11.5969 81.7624 12.196 80.9718 12.7025H80.9656Z" fill="#E1FFFE"/>
<path d="M83.9615 29.5898C84.9992 29.5898 85.7219 29.1698 86.1296 28.3359C86.5372 27.502 86.5372 26.6682 86.1296 25.8281C85.7219 24.9942 84.9992 24.5742 83.9615 24.5742H56.5056C55.4679 24.5742 54.7452 24.9942 54.3375 25.8281C53.9298 26.662 53.9298 27.502 54.3375 28.3359C54.7452 29.1698 55.4679 29.5898 56.5056 29.5898H59.594C59.6372 38.4844 59.6619 57.1137 59.6619 74.8103C59.6619 75.848 60.0881 76.5707 60.9467 76.9784C61.8053 77.386 62.6515 77.386 63.4854 76.9784C64.3192 76.5707 64.7393 75.848 64.7393 74.8103C64.696 65.9157 64.6466 47.2926 64.6034 29.5898H83.9615Z" fill="#E1FFFE"/>
<path d="M83.387 57.4473C85.9133 54.2415 87.0622 51.6102 86.8398 46.7367C86.6113 42.2214 85.1906 39.9978 82.5716 37.1503C80.0885 34.488 76.2713 33.333 71.126 33.6974C70.5392 33.7406 70.045 33.9445 69.6374 34.3089C69.0938 34.7166 68.8035 35.3034 68.7541 36.0693C68.7108 36.2979 68.7108 36.5202 68.7541 36.7488C68.7541 46.502 68.7541 50.9493 68.7541 55.829C67.9449 55.9648 67.3643 56.4281 67.0246 57.2187C66.6848 58.0094 66.6848 58.7753 67.0246 59.5227C67.3643 60.2701 67.9634 60.7086 68.822 60.8445V74.8165C68.822 75.8542 69.2359 76.5769 70.0759 76.9846C70.9098 77.3922 71.7437 77.3922 72.5837 76.9846C73.4176 76.5769 73.8376 75.8542 73.8376 74.8165V61.7216C75.598 62.4876 77.0001 63.6426 78.0378 65.1745C78.6679 66.1195 79.1682 67.2622 79.5265 68.5964C79.8909 69.9306 79.8662 70.1283 80.0206 70.9807C80.1812 71.8269 80.2244 73.0808 80.2677 74.7486C80.3109 75.743 80.7618 76.4534 81.6204 76.8796C82.479 77.3058 83.3128 77.3181 84.1282 76.9166C84.9373 76.5089 85.345 75.7863 85.345 74.7486C85.2524 71.6354 84.9621 69.875 84.4617 67.6143C83.9614 65.3598 82.9916 63.3276 81.5463 61.5178C81.1818 61.0237 80.7556 60.548 80.2615 60.0971C81.4783 59.4671 82.516 58.5838 83.3746 57.4535L83.387 57.4473ZM73.7697 38.6389C76.0736 38.6821 77.8093 39.3863 78.9829 40.739C80.7 42.6353 81.6266 43.6668 81.7625 46.7367C81.9416 49.8066 81.3795 51.0852 80.07 53.3829C78.8964 55.4151 76.821 56.3602 73.8376 56.2243L73.7697 38.6389Z" fill="#E1FFFE"/>
<path d="M94.499 0.428654C93.6651 -0.12726 92.8312 -0.12726 91.9912 0.428654C91.1573 0.984568 90.7373 1.91109 90.7373 3.19587C90.7805 27.619 90.8053 61.8324 90.8053 74.0749C90.8053 75.4214 91.2376 76.3603 92.0962 76.8853C92.9548 77.4104 93.801 77.4104 94.6349 76.8853C95.4688 76.3603 95.8888 75.4214 95.8888 74.0749C95.8455 49.6517 95.7961 15.4383 95.7529 3.19587C95.7529 1.91109 95.3329 0.984568 94.499 0.428654Z" fill="#E1FFFE"/>
<path d="M100.528 25.4886C101.485 32.8761 105.389 36.6934 112.239 36.9528C113.499 36.9961 114.673 36.9096 115.754 36.6934C116.835 36.4772 117.767 36.1992 118.546 35.8533C119.324 35.5074 120.028 35.0133 120.664 34.3647C121.294 33.7162 121.819 33.0985 122.239 32.5179C122.659 31.9372 123.018 31.1898 123.32 30.2819C123.617 29.3739 123.858 28.5956 124.043 27.947C124.222 27.2985 124.37 26.4708 124.494 25.4516C124.611 24.4386 124.685 23.6727 124.716 23.1538C124.747 22.635 124.79 21.9246 124.852 21.0166V20.6275C125.149 14.6669 125 14.6854 124.401 2.80736C124.401 2.24527 124.16 1.76348 123.679 1.34964C123.197 0.941965 122.628 0.688715 121.968 0.60224C121.307 0.515764 120.646 0.515764 119.985 0.60224C119.324 0.688715 118.768 0.923434 118.317 1.31257C117.866 1.70171 117.668 2.19586 117.73 2.80119C118.15 12.1714 118.36 10.2566 118.36 14.9201C118.298 18.8486 118.119 22.3508 117.823 25.4145C117.761 26.1928 117.656 26.897 117.508 27.5208C117.36 28.1447 117.403 28.1694 117.045 29.0341C116.686 29.8989 116.007 30.5228 115.229 30.9304C114.45 31.3443 113.518 31.4802 112.437 31.3504C109.256 31.0045 107.316 29.1886 107.013 24.4386C106.89 22.2335 106.773 18.8053 106.655 14.1357C106.532 7.39674 106.593 9.42274 106.834 2.3441C106.896 1.39287 106.365 0.713423 105.259 0.305753C104.147 -0.101918 103.023 -0.101918 101.881 0.305753C100.738 0.719599 100.17 1.39905 100.17 2.3441C99.8113 11.3252 99.7804 11.1831 100.077 19.7751C100.2 22.4064 100.349 24.3089 100.528 25.4763V25.4886Z" fill="#E1FFFE"/>
<path d="M124.864 63.2049C124.821 54.0632 124.778 47.7134 124.735 43.1117C124.735 42.3828 124.519 41.7157 123.907 41.2648C123.296 40.8139 122.171 40.9313 121.399 41.0116C120.633 41.098 119.633 42.1357 119.274 42.8275L111.455 56.7872C110.732 55.1935 109.626 52.8093 108.138 49.622C106.649 46.441 105.519 44.0506 104.753 42.4569C104.481 41.901 104.117 41.5304 103.666 41.3575C102.9 40.9251 102.072 40.9066 101.195 41.2957C100.312 41.6848 99.873 42.3705 99.873 43.3588C99.9163 61.2098 99.941 66.0091 99.941 74.8729C99.941 75.8612 100.361 76.553 101.195 76.9359C102.029 77.3251 102.875 77.3251 103.734 76.9359C104.592 76.5468 105.018 75.8612 105.018 74.8729C104.975 71.6486 104.95 75.3732 104.95 68.9431V54.4585C105.401 55.4468 106.093 56.9416 107.013 58.9429C107.94 60.9442 108.65 62.4389 109.151 63.4272C109.509 64.2426 110.213 64.6317 111.251 64.5885C112.288 64.5452 113.036 64.1561 113.487 63.4272C114.166 62.1795 115.204 60.2956 116.6 57.7816C117.996 55.2677 119.058 53.3837 119.781 52.136C119.781 55.6197 119.806 60.8824 119.849 67.9116C119.892 74.947 119.942 71.6671 119.985 75.1941C119.985 75.7994 120.152 76.2936 120.491 76.6765C120.831 77.0657 121.245 77.3127 121.745 77.4177C122.239 77.5227 122.74 77.5227 123.234 77.4177C123.728 77.3127 124.148 77.0657 124.488 76.6765C124.827 76.2874 124.994 75.7932 124.994 75.1941C124.951 70.6356 124.902 72.3404 124.858 63.1987L124.864 63.2049Z" fill="#E1FFFE"/>
</svg>
